<mxfile host="app.diagrams.net" modified="2022-04-14T03:45:05.672Z" agent="5.0 (Windows NT 10.0; Win64; x64) AppleWebKit/537.36 (KHTML, like Gecko) Chrome/100.0.4896.75 Safari/537.36 Edg/100.0.1185.39" etag="6NA-fPQwOa_cZ5rrT1ZB" version="17.4.0" type="github">
  <diagram id="eEWmQzEpwkDJDQpvYhqZ" name="Page-1">
    <mxGraphModel dx="650" dy="423" grid="1" gridSize="10" guides="1" tooltips="1" connect="1" arrows="1" fold="1" page="1" pageScale="1" pageWidth="827" pageHeight="1169" math="0" shadow="0">
      <root>
        <mxCell id="0" />
        <mxCell id="1" parent="0" />
        <mxCell id="AuW-b1187xXp7GEaNBYc-62" value="" style="endArrow=none;dashed=1;html=1;rounded=0;" edge="1" parent="1">
          <mxGeometry width="50" height="50" relative="1" as="geometry">
            <mxPoint x="160" y="260" as="sourcePoint" />
            <mxPoint x="160" y="120" as="targetPoint" />
          </mxGeometry>
        </mxCell>
        <mxCell id="AuW-b1187xXp7GEaNBYc-64" value="" style="endArrow=none;dashed=1;html=1;rounded=0;" edge="1" parent="1">
          <mxGeometry width="50" height="50" relative="1" as="geometry">
            <mxPoint x="209.99999999999994" y="260" as="sourcePoint" />
            <mxPoint x="209.99999999999994" y="120" as="targetPoint" />
          </mxGeometry>
        </mxCell>
        <mxCell id="AuW-b1187xXp7GEaNBYc-75" value="" style="endArrow=none;dashed=1;html=1;rounded=0;" edge="1" parent="1">
          <mxGeometry width="50" height="50" relative="1" as="geometry">
            <mxPoint x="260" y="260" as="sourcePoint" />
            <mxPoint x="260" y="120" as="targetPoint" />
          </mxGeometry>
        </mxCell>
        <mxCell id="AuW-b1187xXp7GEaNBYc-76" value="" style="endArrow=none;dashed=1;html=1;rounded=0;" edge="1" parent="1">
          <mxGeometry width="50" height="50" relative="1" as="geometry">
            <mxPoint x="310" y="260" as="sourcePoint" />
            <mxPoint x="310" y="120" as="targetPoint" />
          </mxGeometry>
        </mxCell>
        <mxCell id="AuW-b1187xXp7GEaNBYc-77" value="" style="endArrow=none;dashed=1;html=1;rounded=0;" edge="1" parent="1">
          <mxGeometry width="50" height="50" relative="1" as="geometry">
            <mxPoint x="360" y="260" as="sourcePoint" />
            <mxPoint x="360" y="120" as="targetPoint" />
          </mxGeometry>
        </mxCell>
        <mxCell id="AuW-b1187xXp7GEaNBYc-78" value="" style="endArrow=none;dashed=1;html=1;rounded=0;" edge="1" parent="1">
          <mxGeometry width="50" height="50" relative="1" as="geometry">
            <mxPoint x="410" y="260" as="sourcePoint" />
            <mxPoint x="410" y="120" as="targetPoint" />
          </mxGeometry>
        </mxCell>
        <mxCell id="AuW-b1187xXp7GEaNBYc-79" value="" style="endArrow=none;dashed=1;html=1;rounded=0;" edge="1" parent="1">
          <mxGeometry width="50" height="50" relative="1" as="geometry">
            <mxPoint x="460" y="260" as="sourcePoint" />
            <mxPoint x="460" y="120" as="targetPoint" />
          </mxGeometry>
        </mxCell>
        <mxCell id="AuW-b1187xXp7GEaNBYc-80" value="" style="endArrow=none;dashed=1;html=1;rounded=0;" edge="1" parent="1">
          <mxGeometry width="50" height="50" relative="1" as="geometry">
            <mxPoint x="510" y="260" as="sourcePoint" />
            <mxPoint x="510" y="120" as="targetPoint" />
          </mxGeometry>
        </mxCell>
        <mxCell id="AuW-b1187xXp7GEaNBYc-81" value="" style="endArrow=none;dashed=1;html=1;rounded=0;" edge="1" parent="1">
          <mxGeometry width="50" height="50" relative="1" as="geometry">
            <mxPoint x="560" y="260" as="sourcePoint" />
            <mxPoint x="560" y="120" as="targetPoint" />
          </mxGeometry>
        </mxCell>
        <mxCell id="AuW-b1187xXp7GEaNBYc-4" value="" style="rounded=1;whiteSpace=wrap;html=1;fillColor=#d5e8d4;strokeColor=#82b366;" vertex="1" parent="1">
          <mxGeometry x="160" y="130" width="10" height="30" as="geometry" />
        </mxCell>
        <mxCell id="AuW-b1187xXp7GEaNBYc-5" value="" style="rounded=1;whiteSpace=wrap;html=1;fillColor=#d5e8d4;strokeColor=#82b366;" vertex="1" parent="1">
          <mxGeometry x="210" y="130" width="10" height="30" as="geometry" />
        </mxCell>
        <mxCell id="AuW-b1187xXp7GEaNBYc-6" value="" style="rounded=1;whiteSpace=wrap;html=1;fillColor=#d5e8d4;strokeColor=#82b366;" vertex="1" parent="1">
          <mxGeometry x="260" y="130" width="10" height="30" as="geometry" />
        </mxCell>
        <mxCell id="AuW-b1187xXp7GEaNBYc-8" value="" style="rounded=1;whiteSpace=wrap;html=1;fillColor=#d5e8d4;strokeColor=#82b366;" vertex="1" parent="1">
          <mxGeometry x="310" y="130" width="10" height="30" as="geometry" />
        </mxCell>
        <mxCell id="AuW-b1187xXp7GEaNBYc-9" value="" style="rounded=1;whiteSpace=wrap;html=1;fillColor=#d5e8d4;strokeColor=#82b366;" vertex="1" parent="1">
          <mxGeometry x="360" y="130" width="10" height="30" as="geometry" />
        </mxCell>
        <mxCell id="AuW-b1187xXp7GEaNBYc-10" value="" style="rounded=1;whiteSpace=wrap;html=1;fillColor=#d5e8d4;strokeColor=#82b366;" vertex="1" parent="1">
          <mxGeometry x="410" y="130" width="10" height="30" as="geometry" />
        </mxCell>
        <mxCell id="AuW-b1187xXp7GEaNBYc-11" value="" style="rounded=1;whiteSpace=wrap;html=1;fillColor=#d5e8d4;strokeColor=#82b366;" vertex="1" parent="1">
          <mxGeometry x="460" y="130" width="10" height="30" as="geometry" />
        </mxCell>
        <mxCell id="AuW-b1187xXp7GEaNBYc-12" value="" style="rounded=1;whiteSpace=wrap;html=1;fillColor=#d5e8d4;strokeColor=#82b366;" vertex="1" parent="1">
          <mxGeometry x="510" y="130" width="10" height="30" as="geometry" />
        </mxCell>
        <mxCell id="AuW-b1187xXp7GEaNBYc-13" value="" style="rounded=1;whiteSpace=wrap;html=1;fillColor=#d5e8d4;strokeColor=#82b366;" vertex="1" parent="1">
          <mxGeometry x="560" y="130" width="10" height="30" as="geometry" />
        </mxCell>
        <mxCell id="AuW-b1187xXp7GEaNBYc-17" value="" style="rounded=1;whiteSpace=wrap;html=1;fillColor=#fff2cc;strokeColor=#d6b656;" vertex="1" parent="1">
          <mxGeometry x="160" y="210" width="50" height="30" as="geometry" />
        </mxCell>
        <mxCell id="AuW-b1187xXp7GEaNBYc-18" value="" style="rounded=1;whiteSpace=wrap;html=1;fillColor=#fff2cc;strokeColor=#d6b656;" vertex="1" parent="1">
          <mxGeometry x="410" y="210" width="50" height="30" as="geometry" />
        </mxCell>
        <mxCell id="AuW-b1187xXp7GEaNBYc-1" value="" style="endArrow=none;html=1;rounded=0;" edge="1" parent="1">
          <mxGeometry width="50" height="50" relative="1" as="geometry">
            <mxPoint x="140" y="160" as="sourcePoint" />
            <mxPoint x="620" y="160" as="targetPoint" />
          </mxGeometry>
        </mxCell>
        <mxCell id="AuW-b1187xXp7GEaNBYc-2" value="" style="endArrow=none;html=1;rounded=0;" edge="1" parent="1">
          <mxGeometry width="50" height="50" relative="1" as="geometry">
            <mxPoint x="140" y="240" as="sourcePoint" />
            <mxPoint x="620" y="240" as="targetPoint" />
          </mxGeometry>
        </mxCell>
        <mxCell id="AuW-b1187xXp7GEaNBYc-83" value="" style="endArrow=classic;html=1;rounded=0;" edge="1" parent="1">
          <mxGeometry width="50" height="50" relative="1" as="geometry">
            <mxPoint x="140" y="290" as="sourcePoint" />
            <mxPoint x="620" y="290" as="targetPoint" />
          </mxGeometry>
        </mxCell>
        <mxCell id="AuW-b1187xXp7GEaNBYc-84" value="0" style="text;html=1;strokeColor=none;fillColor=none;align=center;verticalAlign=middle;whiteSpace=wrap;rounded=0;" vertex="1" parent="1">
          <mxGeometry x="150" y="270" width="20" height="20" as="geometry" />
        </mxCell>
        <mxCell id="AuW-b1187xXp7GEaNBYc-85" value="5" style="text;html=1;strokeColor=none;fillColor=none;align=center;verticalAlign=middle;whiteSpace=wrap;rounded=0;" vertex="1" parent="1">
          <mxGeometry x="200" y="270" width="20" height="20" as="geometry" />
        </mxCell>
        <mxCell id="AuW-b1187xXp7GEaNBYc-86" value="10" style="text;html=1;strokeColor=none;fillColor=none;align=center;verticalAlign=middle;whiteSpace=wrap;rounded=0;" vertex="1" parent="1">
          <mxGeometry x="250" y="270" width="20" height="20" as="geometry" />
        </mxCell>
        <mxCell id="AuW-b1187xXp7GEaNBYc-87" value="15" style="text;html=1;strokeColor=none;fillColor=none;align=center;verticalAlign=middle;whiteSpace=wrap;rounded=0;" vertex="1" parent="1">
          <mxGeometry x="300" y="270" width="20" height="20" as="geometry" />
        </mxCell>
        <mxCell id="AuW-b1187xXp7GEaNBYc-89" value="20" style="text;html=1;strokeColor=none;fillColor=none;align=center;verticalAlign=middle;whiteSpace=wrap;rounded=0;" vertex="1" parent="1">
          <mxGeometry x="350" y="270" width="20" height="20" as="geometry" />
        </mxCell>
        <mxCell id="AuW-b1187xXp7GEaNBYc-90" value="25" style="text;html=1;strokeColor=none;fillColor=none;align=center;verticalAlign=middle;whiteSpace=wrap;rounded=0;" vertex="1" parent="1">
          <mxGeometry x="400" y="270" width="20" height="20" as="geometry" />
        </mxCell>
        <mxCell id="AuW-b1187xXp7GEaNBYc-91" value="30" style="text;html=1;strokeColor=none;fillColor=none;align=center;verticalAlign=middle;whiteSpace=wrap;rounded=0;" vertex="1" parent="1">
          <mxGeometry x="450" y="270" width="20" height="20" as="geometry" />
        </mxCell>
        <mxCell id="AuW-b1187xXp7GEaNBYc-92" value="35" style="text;html=1;strokeColor=none;fillColor=none;align=center;verticalAlign=middle;whiteSpace=wrap;rounded=0;" vertex="1" parent="1">
          <mxGeometry x="500" y="270" width="20" height="20" as="geometry" />
        </mxCell>
        <mxCell id="AuW-b1187xXp7GEaNBYc-93" value="40" style="text;html=1;strokeColor=none;fillColor=none;align=center;verticalAlign=middle;whiteSpace=wrap;rounded=0;" vertex="1" parent="1">
          <mxGeometry x="550" y="270" width="20" height="20" as="geometry" />
        </mxCell>
        <mxCell id="AuW-b1187xXp7GEaNBYc-94" value="Time" style="text;html=1;strokeColor=none;fillColor=none;align=center;verticalAlign=middle;whiteSpace=wrap;rounded=0;" vertex="1" parent="1">
          <mxGeometry x="350" y="300" width="20" height="20" as="geometry" />
        </mxCell>
        <mxCell id="AuW-b1187xXp7GEaNBYc-95" value="Period = 5&lt;br&gt;Execution time = 1" style="text;html=1;strokeColor=none;fillColor=none;align=left;verticalAlign=middle;whiteSpace=wrap;rounded=0;" vertex="1" parent="1">
          <mxGeometry x="640" y="120" width="110" height="40" as="geometry" />
        </mxCell>
        <mxCell id="AuW-b1187xXp7GEaNBYc-97" value="Period = 25&lt;br&gt;Execution time = 5" style="text;html=1;strokeColor=none;fillColor=none;align=left;verticalAlign=middle;whiteSpace=wrap;rounded=0;" vertex="1" parent="1">
          <mxGeometry x="640" y="200" width="110" height="40" as="geometry" />
        </mxCell>
        <mxCell id="AuW-b1187xXp7GEaNBYc-98" value="" style="endArrow=none;dashed=1;html=1;rounded=0;dashPattern=1 1;" edge="1" parent="1">
          <mxGeometry width="50" height="50" relative="1" as="geometry">
            <mxPoint x="590" y="139.66" as="sourcePoint" />
            <mxPoint x="620" y="139.66" as="targetPoint" />
          </mxGeometry>
        </mxCell>
        <mxCell id="AuW-b1187xXp7GEaNBYc-99" value="" style="endArrow=none;dashed=1;html=1;rounded=0;dashPattern=1 1;" edge="1" parent="1">
          <mxGeometry width="50" height="50" relative="1" as="geometry">
            <mxPoint x="590" y="224.65999999999997" as="sourcePoint" />
            <mxPoint x="620" y="224.65999999999997" as="targetPoint" />
          </mxGeometry>
        </mxCell>
      </root>
    </mxGraphModel>
  </diagram>
</mxfile>
